# xmcd
#
# Track frame offsets:
#	182
#	58457
#	95582
#	143882
#	149627
#	155572
#	171947
#	177747
#	182165
#	188407
#	192482
#	198190
#	207417
#	210310
#	216232
#	230202
#
# Disc length: 3472 seconds
#
# Revision: 6
# Processed by: cddbd v1.5.2PL0 Copyright (c) Steve Scherf et al.
# Submitted via: EasyCDDAExtractor 11.0.2.1
#
DISCID=070d8e10
DTITLE=Alfred Brendel - Robert Schumann - The Alfred Brendel Collection - Vol.
DTITLE=4  (Fantasy ~ Études Symphoniques)
DYEAR=1966
DGENRE=Classique
TTITLE0=Fantasie in Cdur, opus 17 - I. Durchaus phantastisch und leidenschaftli
TTITLE0=ch vorzutragen
TTITLE1=II. Mässig, durchaus energisch
TTITLE2=III. Langsam getragen, durchweg leise zu halten
TTITLE3=Symphonische Etüden Opus 13 - Theme
TTITLE4=Etude N° 01
TTITLE5=Etude N° 02
TTITLE6=Etude N° 03
TTITLE7=Etude N° 04
TTITLE8=Etude N° 05
TTITLE9=Etude N° 06
TTITLE10=Etude N° 07
TTITLE11=Etude N° 08
TTITLE12=Etude N° 09
TTITLE13=Etude N° 10
TTITLE14=Etude N° 11
TTITLE15=Etude N° 12
EXTD=YEAR: 1966
EXTT0=
EXTT1=
EXTT2=
EXTT3=
EXTT4=
EXTT5=
EXTT6=
EXTT7=
EXTT8=
EXTT9=
EXTT10=
EXTT11=
EXTT12=
EXTT13=
EXTT14=
EXTT15=
PLAYORDER=
